<svg xmlns="http://www.w3.org/2000/svg" viewBox="0 0 248.99 313.78"><defs><style>.cls-1{fill:#006838;}.cls-2{fill:#594a42;}.cls-3{fill:#58595b;}.cls-4{fill:#009444;}.cls-5{fill:#be1e2d;}.cls-6{fill:#fff;}.cls-7{fill:#ed1c24;}.cls-8{fill:#5e1218;}.cls-9{fill:#8a1720;}</style></defs><title>Body</title><g id="Layer_2" data-name="Layer 2"><g id="body"><path class="cls-1" d="M249.24,175.6a153.06,153.06,0,0,1-11.47,58.53l-.07,0-.14-.18A5.3,5.3,0,0,0,236,231a9.05,9.05,0,0,0-1-1.77,3.46,3.46,0,0,0-.95-.84c-.29-.42-.81-1.12-1-1.31a4.65,4.65,0,0,0-2.09-1.22c-2.27-3.07-8.28-3.08-8.95,1.42a40.66,40.66,0,0,0-.18,9,6.74,6.74,0,0,0,.15.95l0,1.36a4.6,4.6,0,0,0-1.47,2.66,21.83,21.83,0,0,0-.14,5.59l0,.71a8.63,8.63,0,0,0-.08,3.21,4.9,4.9,0,0,0-1.36-.25c1.89.07.27-.22-.56-.9a13.79,13.79,0,0,0-3.24-1.87c-2.51-1.14-5-2.11-7.46-3.38-4.41-2.3-9.07-1.57-10.73,3.6a21.54,21.54,0,0,0-.63,10.89c0,.18-.08.36-.11.55-.74,4.42,0,8.78.13,13.14a4.46,4.46,0,0,0-.22,2.26C163.5,278.53,119,268.31,85.36,246a37.83,37.83,0,0,0-1.62-4.39c-1.39-2.89-4.46-4.24-6.49-1.4C58,225.34,43.42,206.06,38.78,182.75,24.17,109.27,75.62,63.89,95.28,40.1h0a112.09,112.09,0,0,1,29.47-3.93C193.5,36.16,249.24,98.59,249.24,175.6Z" transform="translate(-0.25)"/><path class="cls-2" d="M196.81,289.2s0,.06,0,.09a4.72,4.72,0,0,0-1.15.77l-1.14,1-.06.05q-2.53,1.92-5.16,3.71h0c-2.94,1.25-6.67,3-9.24,5.41-3.85,1.34-7.58,3.81-11.29,5.8a113.06,113.06,0,0,1-24.36,7.25c-2,.1-3.95,0-6,.14a109,109,0,0,1-11.85.28c-6.53-.25-13-.15-19.49-.69-.41-4.18-2-8.6-3.37-12.53-1.09-3.29-1.31-8.49-3.57-11.58a5.23,5.23,0,0,0-.92-1.78l0-.15.05-.08c0-.12-.1-.22-.14-.34-.79-3.72-1.51-7.79-3.45-11a4.77,4.77,0,0,0-.71-.9,2.24,2.24,0,0,0,.64-2.39A14.13,14.13,0,0,0,93,267.07c-1.75-3.72-3.25-7.59-5.1-11.26a2.52,2.52,0,0,0,.44-2.13,44.62,44.62,0,0,0-2.4-6.18c-.2-.51-.39-1-.56-1.54,33.62,22.35,78.14,32.57,110.79,28.81a6,6,0,0,0,.49,1.71c-.62,3.24-.14,7.25.05,10.39a10.82,10.82,0,0,0,.06,2C196.76,289,196.79,289.07,196.81,289.2Z" transform="translate(-0.25)"/><path class="cls-2" d="M95.28,40.09h0c-19.66,23.79-71.11,69.17-56.5,142.65,4.64,23.31,19.17,42.59,38.47,57.42-.1.14-.2.3-.3.46a2.37,2.37,0,0,0-.33,1.46s-.07.11-.11.17c-.42.73-.81,1.56-1.23,2.33-.29.39-.58.78-.86,1.18a8.65,8.65,0,0,0-.47.76,5.86,5.86,0,0,0-1.32,2.2c-1.73,3-2.43,6.72-3.64,9.86-1.51,3.94-2.71,8-4.2,11.92a.86.86,0,0,0-.07.1l-.44.66a2.39,2.39,0,0,0-.41,1.05c-.16-.19-.33-.36-.43-.5-.69-.9-1.4-1.8-2.11-2.69a.42.42,0,0,0-.07-.13,8.07,8.07,0,0,0-.65-.86.47.47,0,0,0-.19-.24,34.1,34.1,0,0,0-6.34-3.16l-.07,0-.24-.1-.16-.08-.29-.11h0l-.51-.24-.12-.05a5.91,5.91,0,0,0-1.85-.75l0,0c-2.61-1.06-3.25,3.89-4.29,5.22a.53.53,0,0,0-.11.44.52.52,0,0,0-.06.13c-.35,1.38-.88,2.71-1.27,4.08-.18.62-.33,1.25-.52,1.87a.56.56,0,0,0-.12.38.56.56,0,0,1,0,.12s0,0,0,.06a.88.88,0,0,0,0,.15.62.62,0,0,0-.07.19v0c-.08.23-.15.47-.25.7a.42.42,0,0,0,0,.31.49.49,0,0,0,0,.12.76.76,0,0,0,0,.21.54.54,0,0,0,0,.33h0a.54.54,0,0,0,0,.22.75.75,0,0,0,0,.3.45.45,0,0,0,0,.16.74.74,0,0,0,0,.14h0a.48.48,0,0,0,0,.24h0a.49.49,0,0,0,0,.12.39.39,0,0,0,0,.24s0,0,0,0a.09.09,0,0,0,0,.05h0a.28.28,0,0,0,0,.09s0,0,0,.05a.1.1,0,0,0,0,.09.06.06,0,0,0,0,0,.49.49,0,0,0,0,.29v0h0a.49.49,0,0,0,0,.29.41.41,0,0,0,0,.19l0,.13a2,2,0,0,0-.05.42,1.13,1.13,0,0,0,0,.32C17,255.58.25,217.79.25,175.6.25,110,40.74,54.91,95.28,40.09Z" transform="translate(-0.25)"/><ellipse class="cls-3" cx="94.24" cy="56.64" rx="35.71" ry="8.41" transform="matrix(0.95, -0.32, 0.32, 0.95, -13.47, 33.36)"/><rect class="cls-4" x="65.69" y="3.8" width="40.5" height="56.86" rx="4.48" ry="4.48" transform="matrix(0.95, -0.32, 0.32, 0.95, -6.05, 29.38)"/><rect class="cls-1" x="68.36" y="11.16" width="21.6" height="50.35" rx="3.66" ry="3.66" transform="translate(-7.73 27.42) rotate(-18.78)"/><path class="cls-5" d="M196.37,272.52c-.1-4.37-.87-8.73-.13-13.14,0-.2.07-.38.11-.56a21.5,21.5,0,0,1,.63-10.88c1.66-5.17,6.32-5.9,10.73-3.61,2.44,1.28,4.95,2.24,7.46,3.39a13.41,13.41,0,0,1,3.24,1.86c.83.68,2.45,1,.56.91a5,5,0,0,1,1.37.24l-.06-.37-26.34-21.55,2.41,50.8a18.36,18.36,0,0,1,.29-3.12A5.27,5.27,0,0,1,196.37,272.52Z" transform="translate(-0.25)"/><path class="cls-5" d="M220.42,247.55c0-.25,0-.5,0-.74a21.76,21.76,0,0,1,.14-5.58,4.59,4.59,0,0,1,1.47-2.67l0-1.35a7,7,0,0,1-.15-1,40.76,40.76,0,0,1,.18-9c.67-4.49,6.68-4.48,8.95-1.41a4.65,4.65,0,0,1,2.09,1.22c.18.19.7.88,1,1.3a3.63,3.63,0,0,1,.95.84,9.35,9.35,0,0,1,1,1.77,4.61,4.61,0,0,1,.66.79l-18.41-45.87,2,62.63A6.65,6.65,0,0,1,220.42,247.55Z" transform="translate(-0.25)"/><path class="cls-6" d="M50.78,263.35s0,0,0,0a6.17,6.17,0,0,1,1.93.78h0l.75.33.06,0h0l.38.16.07.05h0a34.72,34.72,0,0,1,6.34,3.16.81.81,0,0,1,.09.1L47.6,250.39,44,276.59c.08-.21.15-.41.22-.62a.78.78,0,0,1,0-.14c0-.14.08-.28.13-.42a.51.51,0,0,1,.08-.28c.19-.64.36-1.28.54-1.91.39-1.37.92-2.71,1.27-4.09a.45.45,0,0,1,.06-.14.54.54,0,0,1,.11-.43C47.53,267.23,48.17,262.28,50.78,263.35Z" transform="translate(-0.25)"/><path class="cls-7" d="M81.69,218.24l-17.32,52.9.35-.52.06-.08c1.49-4,2.69-8,4.21-11.94,1.21-3.15,1.92-6.91,3.66-9.86a5.85,5.85,0,0,1,1.3-2.21,7.25,7.25,0,0,1,.47-.75c.28-.41.57-.8.86-1.19.42-.76.81-1.6,1.23-2.32,0-.06.08-.1.11-.15a2.4,2.4,0,0,1,.33-1.48c2-3.44,5.33-2.1,6.79.94.92,1.9,1.4,4,2.18,5.92a44.26,44.26,0,0,1,2.4,6.19,2.52,2.52,0,0,1-.45,2.14c1.84,3.67,3.37,7.53,5.11,11.25a14.13,14.13,0,0,1,2.62,5.17,2.26,2.26,0,0,1-.64,2.38,4.54,4.54,0,0,1,.71.91c1.93,3.25,2.66,7.31,3.45,11,0,.12.1.22.14.34l-.05.08,0,.15a5.25,5.25,0,0,1,.93,1.8,10.08,10.08,0,0,1,1.11,2.05Z" transform="translate(-0.25)"/><path class="cls-8" d="M71.56,249.22s8.79-17.57,11.49-10.14S95,267.36,95,267.36l-13.3-49.12Z" transform="translate(-0.25)"/><path class="cls-8" d="M53.82,264.62l.19.08,0,0,.06,0a38,38,0,0,1,6,2.93l.9.47L47.6,250.39l-3.86,27.67s.08-.37.23-1c0,0,0,0,0-.05a.44.44,0,0,1,0-.32q.15-.37.27-.75l0-.12c0-.16.09-.33.13-.5a.74.74,0,0,1,0-.14c.47-1.77,1.15-4.12,1.93-6.27a.49.49,0,0,1,.11-.37s0-.06,0-.08a27.55,27.55,0,0,1,1.34-3.07,3.75,3.75,0,0,1,1.69-2.11,1,1,0,0,1,.81-.11l.58.21a5.61,5.61,0,0,1,1.59.65Z" transform="translate(-0.25)"/><path class="cls-8" d="M196,261.32c0-1.34,0-2.72.08-4.11a21.38,21.38,0,0,1,.3-6.94c.37-5.68,1.07-10,2.35-9.49,4.68.05,19,7.56,19,7.56l-23.79-19.53,2.12,44.45s-.07-3.08-.07-7.33A35.47,35.47,0,0,1,196,261.32Z" transform="translate(-0.25)"/><path class="cls-9" d="M220.32,250.39s-.42-47.3,2.27-43.23,15,26.88,15,26.88l-19.31-48.11Z" transform="translate(-0.25)"/></g></g></svg>