<svg xmlns="http://www.w3.org/2000/svg" viewBox="0 0 203.77 281.09"><defs><style>.cls-1{fill:#a7a9ac;}.cls-2{fill:#5c5500;}.cls-3{fill:#006838;}.cls-4,.cls-5{fill:none;}.cls-4,.cls-5,.cls-6{stroke:#231f20;stroke-miterlimit:10;}.cls-5{stroke-linecap:round;}.cls-6{fill:#3c2415;}</style></defs><title>Hand 1</title><g id="Layer_2" data-name="Layer 2"><g id="hand_1" data-name="hand 1"><path class="cls-1" d="M177.94,257.89a15.24,15.24,0,0,0,21.3,3.25c6.78-5,4.88-11.25,1.25-19.3-3.45-7.67-12.52-10.24-19.3-5.25a15.2,15.2,0,0,0-3,2.9l-68.16-92.74L91.6,160.31,159.71,253a15.71,15.71,0,0,0-3.35,1.84c-6.78,5-6.23,12.52-1.25,19.3s11.85,8.77,19.3,5.26c7.61-3.6,8.51-14.72,3.53-21.5"/><path class="cls-2" d="M99,92.63c17.42,32.26,23.54,49.08,16.15,62.09-3.78,6.64-11,12.12-18.88,13.3-4.13.61-19.68,1.71-50.67-40.34-4.41-6-9.06-12.3-13.64-18.81l.05,0,23.12,14L47.44,81.45l5.79,6.07,2.2-14.34L67.11,89.8l1.55-8.62,26.19,27-5-32.4,0,0Q94.28,83.81,99,92.63Z"/><path class="cls-3" d="M89.88,75.79l5,32.4-26.19-27L67.11,89.8,55.43,73.18l-2.2,14.34-5.79-6.07,7.72,41.35L32,108.83l-.05,0C10.72,78.6-8.88,44,5.33,18.16,6.52,16,14.05,2.32,26.68.66,45.85-1.85,62.41,25.17,89.91,75.77Z"/><path class="cls-4" d="M32,108.87C10.72,78.6-8.88,44,5.33,18.16,6.52,16,14.05,2.32,26.68.66,45.85-1.85,62.41,25.17,89.91,75.77q4.36,8,9.12,16.86c17.42,32.26,23.54,49.08,16.15,62.09-3.78,6.64-11,12.12-18.88,13.3-4.13.61-19.68,1.71-50.67-40.34C41.22,121.7,36.57,115.38,32,108.87Z"/><polyline class="cls-5" points="32.04 108.83 55.16 122.8 47.44 81.45 53.23 87.52 55.43 73.18 67.11 89.8 68.66 81.18 94.85 108.19 89.88 75.79"/><path class="cls-6" d="M55.16,122.8,32,108.83S6.77,73.82,3.14,55.1s-4.74-27.46,7-44l3.71-3.94s-5.36,13.4,5.81,41.51S55.16,122.8,55.16,122.8Z"/></g></g></svg>