<svg xmlns="http://www.w3.org/2000/svg" viewBox="0 0 207.65 236.7"><defs><style>.cls-1,.cls-2{fill:#5c5500;stroke:#231f20;stroke-miterlimit:10;}.cls-2{stroke-linecap:round;}.cls-3{fill:#006838;}</style></defs><title>Hand 2</title><g id="Layer_2" data-name="Layer 2"><g id="hand_2" data-name="hand 2"><path class="cls-1" d="M59.07,106.65c1.13-8.32,6.11-19.4,15.26-23,26.15-10.28,69.51,47.07,99,86.13,13.28,17.57,40.68,54.24,32.17,64-1.89,2.17-5,2.41-7.25,2.42-23.51,0-46.68-26.27-64.55-44.85C81.43,137,56,129.61,59.07,106.65Z"/><path class="cls-2" d="M206.91,230.86a12.71,12.71,0,0,0-1.63-5c-2.9-6-5.84-12.06-10.05-17.23"/><path class="cls-2" d="M203.89,235a.53.53,0,0,0,.06-.52c-1.74-7.48-8.61-15.36-14-20.87"/><path class="cls-2" d="M199.17,236.15c-1.52-5.27-8.72-12.54-13.08-15.86"/><path class="cls-1" d="M3,21.58C3.82,19.26,9.31,4.65,21.58,1.2c20.58-5.79,43.17,24.66,84.75,80.68,21.85,29.44,30.32,45.22,24.86,59.15-2.79,7.11-9.13,13.56-16.79,15.86-4,1.19-19.23,4.51-55.91-32.68C29,94.32-9.65,55.13,3,21.58Z"/><circle class="cls-3" cx="169.56" cy="213.34" r="4.75"/><circle class="cls-3" cx="169.56" cy="184.8" r="4.75"/><circle class="cls-3" cx="133.77" cy="176.24" r="8.56"/><circle class="cls-3" cx="150.95" cy="146.88" r="3.47"/><circle class="cls-3" cx="94.14" cy="128.19" r="9.04"/><circle class="cls-3" cx="81.14" cy="70.14" r="10.89"/><circle class="cls-3" cx="32.6" cy="73.09" r="5.92"/></g></g></svg>