<svg xmlns="http://www.w3.org/2000/svg" viewBox="0 0 192.02 193.18"><defs><style>.cls-1{fill:#55001a;}.cls-2{fill:#c2b59b;stroke:#c2b59b;}.cls-12,.cls-13,.cls-14,.cls-17,.cls-18,.cls-2,.cls-3,.cls-5{stroke-miterlimit:10;}.cls-10,.cls-12,.cls-14,.cls-17,.cls-3{fill:none;}.cls-10,.cls-12,.cls-13,.cls-17,.cls-18,.cls-3,.cls-5{stroke:#231f20;}.cls-18,.cls-4,.cls-5{fill:#231f20;}.cls-6{fill:#c49a6c;}.cls-7{fill:#5c5500;}.cls-8{fill:#603913;}.cls-9{fill:#be1e2d;}.cls-10,.cls-17,.cls-18{stroke-linecap:round;}.cls-10{stroke-linejoin:round;}.cls-11{fill:#fff;}.cls-12{stroke-width:0.25px;}.cls-13{fill:#594a42;}.cls-14{stroke:#8b5e3c;}.cls-15{fill:#006838;}.cls-16{fill:#3c2415;}.cls-17{stroke-width:6px;}.cls-18{stroke-width:3px;}</style></defs><title>Head</title><g id="Layer_2" data-name="Layer 2"><g id="head"><path class="cls-1" d="M137,173.9s-25-32.59-8.34-65.15c7.25-14.2-49.68-1.67-49.68-1.67L93.74,158Z"/><polygon class="cls-2" points="128.81 156.22 136.86 161.23 126.59 179.78 115.52 172.1 128.81 156.22"/><path class="cls-3" d="M133.83,160.76c-.34.45-3.53-2-3.87-1.52s2.84,2.88,2.49,3.33-3.52-2-3.87-1.52,2.84,2.88,2.5,3.33-3.53-2-3.87-1.51,2.84,2.87,2.49,3.32-3.53-2-3.87-1.51,2.84,2.87,2.5,3.32-3.53-2-3.88-1.51,2.84,2.87,2.5,3.33-3.54-2-3.88-1.51,2.84,2.88,2.49,3.33"/><polygon class="cls-2" points="146.07 144.31 136.44 143.97 135.97 123.26 149.63 124.39 146.07 144.31"/><polygon class="cls-4" points="143.45 142.99 137.58 142.99 137.58 125.53 146.67 126.39 143.45 142.99"/><polygon class="cls-5" points="158.37 139.09 151.33 138.95 151.38 119.11 161.34 119.94 158.37 139.09"/><path class="cls-6" d="M67.53,96.11c-4.16,5.43-8.43-3.21-15.27-3.21s-6.84,4-13.68,4-6.85-4-13.69-4-11.12,8.65-15.28,3.21C4.17,89,13.2,86,13.2,77s-4-9-4-17.89,4-8.94,4-17.89-9-12-3.59-19.1c4.16-5.44,8.43,3.21,15.27,3.21s6.84-4,13.68-4,6.85,4,13.69,4,11.12-8.65,15.28-3.22c5.44,7.11-3.59,10.16-3.59,19.11s4,8.94,4,17.88S62,68.75,64,77.46C66.3,87.29,73,89,67.53,96.11Z"/><path class="cls-7" d="M85.66,0A77.52,77.52,0,0,0,47.32,10.2a70.93,70.93,0,0,1,2.79,19.93c0,27.26-14.67,49.36-32.76,49.36A24.3,24.3,0,0,1,2.36,74,108.56,108.56,0,0,0,0,96.59c0,53.35,38.35,96.59,85.66,96.59,19.26,0,37-7.17,51.35-19.28a80.6,80.6,0,0,1-51.09-67c17.66,10.72,40.49,19.25,66.07,23.77,4.43.78,8.83,1.41,13.17,1.91a107.23,107.23,0,0,0,6.15-36C171.31,43.24,133,0,85.66,0Z"/><path class="cls-8" d="M64.79,98.45a9.59,9.59,0,0,0-1.59-4.39,15.57,15.57,0,0,0-8.91-6.19c-4.5-1.12-7.26-2-11.89-2.15-10.67-.44-11.65,27.54-6.17,37.71,3.45,6.4,8.86,6.3,15.29,9.71,3,1.58,3.3,9.86,6.67,10.05a9.91,9.91,0,0,0,10.37-11Z"/><path class="cls-9" d="M125.13,62.08c6.08,14.87,1.65,47.17-20.81,42.29a17.41,17.41,0,0,1-5.7-2.41c-4.88-5.63-6.13-15.95-6.26-22.4s.33-12.67,4-18C99.82,56.51,108.05,51,114,52.09,118.67,53.18,122.76,56.3,125.13,62.08Z"/><path class="cls-4" d="M114,52.09c-6-1.07-14.19,4.42-17.67,9.48-3.65,5.32-4.1,11.54-4,18s1.38,16.77,6.26,22.4a26.51,26.51,0,0,1-7.9-8.22c-4.42-7-6.41-15.64-4.54-23.67C89,58.14,103.08,49.54,114,52.09Z"/><path class="cls-3" d="M114,52.09c4.66,1.09,8.75,4.21,11.12,10,6.08,14.87,1.65,47.17-20.81,42.29a17.41,17.41,0,0,1-5.7-2.41,26.51,26.51,0,0,1-7.9-8.22c-4.42-7-6.41-15.64-4.54-23.67C89,58.14,103.08,49.54,114,52.09Z"/><path class="cls-10" d="M98.62,102c-4.88-5.63-6.13-15.95-6.26-22.4s.33-12.67,4-18C99.82,56.51,108.05,51,114,52.09"/><path class="cls-4" d="M112.25,65.84c4.74.17,8.39,5.86,8.16,12.71s-4.28,12.27-9,12.11S103,84.81,103.23,78,107.5,65.68,112.25,65.84Zm4.82,12A1.88,1.88,0,1,0,115.22,80,2.05,2.05,0,0,0,117.07,77.83Zm-4.35,1.73a.91.91,0,1,0-.9.91A.9.9,0,0,0,112.72,79.56Z"/><path class="cls-11" d="M115.22,75.63a2.24,2.24,0,1,1-1.85,2.2A2.05,2.05,0,0,1,115.22,75.63Z"/><path class="cls-11" d="M111.82,78.65a.91.91,0,1,1-.91.91A.9.9,0,0,1,111.82,78.65Z"/><path class="cls-3" d="M120.41,78.55c-.24,6.85-4.28,12.27-9,12.11S103,84.81,103.23,78s4.27-12.27,9-12.11S120.64,71.7,120.41,78.55Z"/><path class="cls-12" d="M117.07,77.83a1.88,1.88,0,1,1-1.85-2.2A2.06,2.06,0,0,1,117.07,77.83Z"/><path class="cls-12" d="M112.72,79.56a.91.91,0,1,1-.9-.91A.9.9,0,0,1,112.72,79.56Z"/><path class="cls-9" d="M154.07,52.4C158,62,155.14,82.91,140.61,79.75a11.2,11.2,0,0,1-3.68-1.56c-3.16-3.64-4-10.31-4.05-14.48s.21-8.2,2.57-11.64c2.25-3.27,7.57-6.82,11.43-6.13A10.19,10.19,0,0,1,154.07,52.4Z"/><path class="cls-4" d="M146.88,45.94c-3.86-.69-9.18,2.86-11.43,6.13-2.36,3.44-2.65,7.47-2.57,11.64s.89,10.84,4.05,14.48a17.05,17.05,0,0,1-5.11-5.31,20.41,20.41,0,0,1-2.94-15.31C130.68,49.86,139.81,44.29,146.88,45.94Z"/><path class="cls-3" d="M146.88,45.94a10.19,10.19,0,0,1,7.19,6.46C158,62,155.14,82.91,140.61,79.75a11.2,11.2,0,0,1-3.68-1.56,17.05,17.05,0,0,1-5.11-5.31,20.41,20.41,0,0,1-2.94-15.31C130.68,49.86,139.81,44.29,146.88,45.94Z"/><path class="cls-10" d="M136.93,78.19c-3.16-3.64-4-10.31-4.05-14.48s.21-8.2,2.57-11.64c2.25-3.27,7.57-6.82,11.43-6.13"/><path class="cls-4" d="M145.74,54.84c3.07.11,5.43,3.78,5.28,8.21s-2.77,7.94-5.84,7.83-5.43-3.78-5.27-8.21S142.67,54.73,145.74,54.84Zm3.12,7.75a1.22,1.22,0,1,0-1.2,1.43A1.33,1.33,0,0,0,148.86,62.59ZM146,63.71a.58.58,0,0,0-.58-.59.58.58,0,0,0-.59.59.59.59,0,0,0,.59.59A.58.58,0,0,0,146,63.71Z"/><path class="cls-11" d="M147.66,61.17a1.45,1.45,0,1,1-1.2,1.42A1.33,1.33,0,0,1,147.66,61.17Z"/><path class="cls-11" d="M145.46,63.12a.58.58,0,0,1,.58.59.58.58,0,0,1-.58.59.59.59,0,0,1-.59-.59A.58.58,0,0,1,145.46,63.12Z"/><path class="cls-3" d="M151,63.05c-.16,4.43-2.77,7.94-5.84,7.83s-5.43-3.78-5.27-8.21,2.76-7.94,5.83-7.83S151.17,58.62,151,63.05Z"/><path class="cls-12" d="M148.86,62.59a1.22,1.22,0,1,1-1.2-1.42A1.33,1.33,0,0,1,148.86,62.59Z"/><path class="cls-12" d="M146,63.71a.58.58,0,0,1-.58.59.59.59,0,0,1-.59-.59.58.58,0,0,1,.59-.59A.58.58,0,0,1,146,63.71Z"/><path class="cls-13" d="M181.52,110.42,152.69,113a11,11,0,0,1-11.89-10h0a11,11,0,0,1,9.95-11.89l28.83-2.56a11,11,0,0,1,11.9,10h0A11,11,0,0,1,181.52,110.42Z"/><path class="cls-5" d="M181.63,110.54,167.21,112a5,5,0,0,1-5.6-4.21h0a5,5,0,0,1,4.22-5.59l14.42-1.5a5,5,0,0,1,5.59,4.22h0A4.94,4.94,0,0,1,181.63,110.54Z"/><path class="cls-14" d="M35.7,33.07c-2.63.42-3.27-3.52-5.9-3.1s-2,4.38-4.61,4.81-3.28-3.52-5.9-3.1"/><path class="cls-14" d="M32.9,64.67c-2.3,1.33-4.3-2.14-6.61-.8S26,68.66,23.68,70s-4.31-2.13-6.62-.8"/><path class="cls-14" d="M37.79,55.3c-2.55-.77-1.38-4.6-3.93-5.37s-3.71,3-6.26,2.27-1.38-4.6-3.93-5.38"/><circle class="cls-15" cx="17.46" cy="101.54" r="5.06"/><circle class="cls-15" cx="55.76" cy="163.64" r="8.34"/><circle class="cls-15" cx="73.68" cy="95.11" r="4.92"/><circle class="cls-15" cx="71.08" cy="30.41" r="7.8"/><circle class="cls-15" cx="106.1" cy="17.28" r="2.87"/><circle class="cls-15" cx="127.99" cy="120.42" r="2.33"/><path class="cls-16" d="M44.76,96.44c-6.22,10.44.76,20.88,7.71,28.79,2.13,2.42,5.65-1.13,3.53-3.54-5.36-6.1-11.88-14.41-6.92-22.73,1.64-2.77-2.68-5.29-4.32-2.52Z"/><path class="cls-16" d="M49.28,99.15c1.56-1.55,4.35-1,4.56,1.43.28,3.18,5.29,3.21,5,0-.58-6.58-8.27-9.8-13.09-5-2.28,2.28,1.26,5.82,3.53,3.53Z"/><line class="cls-17" x1="127.47" y1="40.71" x2="142.4" y2="37.02"/><path class="cls-18" d="M91.66,40.38l-6.07,1.77a3.78,3.78,0,1,0,2.12,7.26l2.65-.78Z"/><path class="cls-18" d="M112.13,34.41,98.2,38.47l-1.3,8.25,17.34-5.06a3.78,3.78,0,1,0-2.11-7.25Z"/></g></g></svg>