<svg xmlns="http://www.w3.org/2000/svg" viewBox="0 0 127.54 233.51"><defs><style>.cls-1{fill:#5c5500;}.cls-2{fill:#3c2415;}.cls-3{fill:#754c29;}.cls-4{fill:none;stroke:#231f20;}.cls-4,.cls-6{stroke-miterlimit:10;}.cls-5{fill:#006838;}.cls-6{fill:#055f2c;stroke:#2e3192;}</style></defs><title>Leg1</title><g id="Layer_2" data-name="Layer 2"><g id="foot_1" data-name="foot 1"><path class="cls-1" d="M23.6,7.14h0A17.85,17.85,0,0,0,6.76,25.94L18.81,204l28.08-2.3L42.41,24A17.84,17.84,0,0,0,23.6,7.14Z"/><path class="cls-2" d="M115.62,221c11,4.06,11.81,6.15,11.32,9.22s-11.2,2.77-11.2,2.77H47.86l-4.32-4.37v4.18H10.05l6.33-32.58.13-.74H48l8.86,18.13,58.05,3.14h0Z"/><path class="cls-3" d="M114.9,220.76h0l-58-3.14L48,199.5h4.68l6.45,10.58s12.54.61,22.16,2.09A194.09,194.09,0,0,1,114.9,220.76Z"/><path class="cls-4" d="M48,199.5H16.51l-.13.74-6.33,32.58H43.54v-4.18L47.86,233h67.88s10.71.3,11.2-2.77-.36-5.16-11.32-9.22l-.72-.26a194.09,194.09,0,0,0-33.62-8.59c-9.62-1.48-22.16-2.09-22.16-2.09L52.67,199.5Z"/><polyline class="cls-4" points="47.98 199.48 47.99 199.5 56.85 217.63 114.9 220.77"/><ellipse class="cls-5" cx="36.74" cy="152.59" rx="10.15" ry="11.34"/><path class="cls-5" d="M46.23,189.4c-4.17.16-7.71-3.7-7.91-8.62s3-9.06,7.2-9.23"/><ellipse class="cls-5" cx="18.81" cy="51.88" rx="7.56" ry="8.93"/><path class="cls-6" d="M71.38,197.79,60.15,172.37l2.3-8.28L58,150.89,42,18.66S36.24,1.13,25.29.54s-16.42,6.3-18,16.55C7,19.12,6.51,27.64,6,40l13.6,10.49L9.24,61.6,13.41,70,4.29,84.34C2.43,137.2.52,201.73.52,201.73H9.64l6-46.24v19.1l8-45.35L34.3,171.81l2.44-8.36,19.84,38.28H73Z"/><ellipse class="cls-5" cx="25.75" cy="189.4" rx="5.8" ry="6.85"/><ellipse class="cls-5" cx="22.41" cy="169.46" rx="3.6" ry="4.02"/></g></g></svg>