<svg xmlns="http://www.w3.org/2000/svg" viewBox="0 0 105.62 204.5"><defs><style>.cls-1{fill:#3c2415;}.cls-2{fill:#754c29;}.cls-3{fill:none;stroke:#231f20;}.cls-3,.cls-4{stroke-miterlimit:10;}.cls-4{fill:#055f2c;stroke:#2e3192;}</style></defs><title>Leg2</title><g id="Layer_2" data-name="Layer 2"><g id="foot_2" data-name="foot 2"><path class="cls-1" d="M95,193.39c9.7,3.59,10.45,5.44,10,8.15S95.12,204,95.12,204h-60l-3.82-3.86v3.69H1.65L7.25,175l.11-.65H35.2l7.84,16,51.34,2.78h0Z"/><path class="cls-2" d="M94.38,193.16h0L43,190.39l-7.84-16h4.14l5.71,9.35s11.09.54,19.59,1.85A171.72,171.72,0,0,1,94.38,193.16Z"/><path class="cls-3" d="M35.2,174.36H7.36l-.11.65-5.6,28.81H31.27v-3.69L35.09,204h60s9.47.27,9.91-2.45-.32-4.56-10-8.15l-.63-.23a171.72,171.72,0,0,0-29.74-7.6c-8.5-1.31-19.59-1.85-19.59-1.85l-5.71-9.35Z"/><polyline class="cls-3" points="35.2 174.34 35.2 174.36 43.04 190.39 94.38 193.17"/><path class="cls-4" d="M63.19,175l-9.94-22.48,2-7.32L51.34,133.5,37.2,16.56S32.11,1.05,22.43.53,7.9,6.11,6.5,15.17s-6,163.29-6,163.29H64.59Z"/></g></g></svg>